<?xml version="1.0" standalone="no"?>
<!DOCTYPE svg PUBLIC "-//W3C//DTD SVG 20010904//EN"
 "http://www.w3.org/TR/2001/REC-SVG-20010904/DTD/svg10.dtd">
<svg version="1.0" xmlns="http://www.w3.org/2000/svg"
 width="4096.000000pt" height="2896.000000pt" viewBox="0 0 4096.000000 2896.000000"
 preserveAspectRatio="xMidYMid meet">
<g transform="translate(0.000000,2896.000000) scale(0.100000,-0.100000)"
fill="#6B6B6B" stroke="none">
<path d="M1629 23116 c-2 -3 -54 -8 -114 -12 -154 -9 -141 -7 -269 -41 -155
-40 -337 -165 -421 -288 -14 -22 -29 -42 -33 -45 -9 -7 -75 -142 -100 -205
-58 -147 -15 -293 104 -351 112 -54 253 -26 424 84 103 67 187 114 209 118 8
2 17 6 20 11 6 8 60 29 103 40 82 20 264 11 317 -17 9 -5 47 -23 85 -42 216
-104 386 -404 386 -681 0 -210 -57 -419 -203 -742 -67 -146 -298 -600 -308
-603 -5 -2 -9 -10 -9 -18 0 -19 -60 -138 -71 -142 -5 -2 -9 -10 -9 -17 0 -17
-68 -147 -81 -156 -5 -3 -9 -10 -7 -15 4 -14 -44 -114 -54 -114 -5 0 -6 -4 -3
-10 5 -8 -19 -64 -35 -80 -3 -3 -6 -9 -7 -15 -1 -5 -26 -71 -55 -145 -30 -74
-62 -162 -72 -195 -11 -33 -22 -69 -27 -80 -4 -11 -20 -81 -34 -154 -34 -168
-44 -400 -25 -547 8 -60 13 -199 12 -354 -1 -247 8 -352 37 -444 6 -17 12 -42
15 -56 10 -52 16 -76 41 -164 41 -142 65 -218 82 -255 24 -54 75 -175 77 -186
2 -5 26 -59 54 -119 29 -60 52 -111 52 -113 0 -2 27 -43 59 -92 54 -80 97
-126 138 -149 11 -7 13 -13 5 -28 -13 -24 -59 -126 -101 -224 -18 -41 -39 -88
-46 -105 -7 -16 -30 -75 -51 -130 -20 -55 -40 -104 -44 -110 -10 -12 -67 -216
-75 -265 -3 -19 -13 -57 -21 -85 -25 -83 -71 -269 -72 -290 0 -11 -5 -49 -11
-85 -6 -36 -11 -89 -11 -118 0 -34 -11 -85 -30 -139 -17 -46 -33 -101 -37
-121 -9 -47 -10 -1215 -1 -1303 4 -36 14 -99 22 -140 8 -41 17 -85 20 -99 3
-14 12 -56 20 -95 8 -38 19 -122 25 -186 6 -73 18 -139 32 -175 21 -58 53
-186 64 -254 3 -19 25 -96 50 -170 25 -74 47 -139 48 -145 2 -5 10 -26 19 -46
9 -20 19 -47 23 -60 10 -30 125 -262 197 -394 238 -438 323 -567 567 -860 185
-222 310 -346 421 -417 14 -8 41 -30 60 -47 19 -17 38 -31 43 -31 4 0 15 -8
25 -17 71 -68 376 -283 401 -283 5 0 11 -4 13 -8 5 -13 253 -147 403 -217 197
-93 315 -145 329 -145 3 0 25 -9 49 -19 23 -10 56 -24 72 -29 17 -6 68 -25
115 -42 47 -17 110 -40 140 -50 30 -10 74 -26 97 -34 22 -8 52 -17 65 -20 12
-2 60 -14 105 -25 45 -12 108 -24 140 -27 31 -2 138 -25 237 -49 l181 -44 249
-1 c212 0 260 -3 320 -19 185 -49 237 -56 416 -56 111 0 188 4 210 12 19 7 46
14 60 17 14 2 59 13 100 24 60 17 116 22 285 25 171 4 226 9 294 26 47 12 99
23 115 26 17 2 62 11 100 20 37 9 100 16 139 16 40 0 77 5 84 11 7 6 13 8 13
4 0 -3 24 3 53 13 28 10 102 33 162 51 61 18 137 42 170 53 33 10 68 21 78 22
53 11 223 67 357 119 30 11 57 21 60 22 18 3 114 47 227 104 145 74 261 149
365 235 l68 55 0 1073 c0 1055 0 1073 -20 1126 -12 29 -29 70 -40 91 -11 21
-17 40 -15 44 3 3 2 4 -1 2 -3 -2 -35 6 -70 18 -35 13 -91 24 -125 25 -58 2
-64 0 -142 -52 -45 -29 -122 -78 -172 -107 -49 -29 -101 -60 -115 -69 -37 -25
-395 -204 -470 -236 -36 -15 -84 -36 -107 -46 -24 -11 -45 -19 -49 -19 -3 0
-33 -11 -67 -24 -67 -26 -190 -66 -222 -72 -11 -2 -50 -12 -88 -23 -37 -11
-70 -20 -72 -20 -3 -1 -6 -1 -7 -2 -2 0 -14 -2 -28 -4 -14 -2 -52 -10 -85 -19
-33 -8 -76 -18 -95 -21 -19 -3 -71 -15 -115 -27 -44 -11 -93 -22 -110 -23 -16
-2 -59 -8 -95 -14 -37 -6 -211 -11 -408 -11 -364 0 -362 0 -537 55 -27 8 -93
18 -145 22 -77 4 -124 15 -245 55 -155 51 -394 164 -475 224 -25 18 -170 158
-323 311 -319 321 -286 273 -509 743 -40 85 -96 228 -104 264 -2 10 -10 42
-18 70 -8 28 -18 67 -21 86 -3 19 -15 73 -25 120 -10 47 -21 121 -24 165 -3
44 -9 112 -12 152 -9 94 12 341 38 468 11 55 22 112 24 126 2 14 10 46 18 70
8 24 20 64 26 89 6 25 20 70 31 100 11 30 29 80 41 110 11 30 44 112 74 181
48 110 76 165 173 334 64 112 181 258 304 380 130 130 173 162 402 302 31 19
326 165 339 168 6 1 25 8 41 15 46 19 206 68 240 74 163 25 308 36 592 45 285
9 508 1 620 -23 40 -9 87 -18 105 -21 17 -3 59 -15 92 -25 34 -11 104 -22 156
-24 59 -3 125 -15 175 -30 72 -22 97 -30 160 -57 11 -5 55 -22 97 -39 43 -16
86 -34 95 -39 27 -14 151 -66 218 -91 190 -73 372 -170 358 -193 -4 -6 -1 -7
6 -2 8 4 33 -7 64 -28 57 -38 465 -262 496 -272 15 -5 32 14 92 102 l74 108 3
355 c1 195 -1 702 -5 1125 l-8 770 -49 67 c-30 41 -61 72 -80 79 -27 11 -157
71 -281 130 -37 17 -163 68 -310 124 -33 13 -72 28 -87 34 -16 6 -28 8 -28 5
0 -4 -6 -2 -12 3 -10 8 -106 44 -128 48 -38 7 -50 20 -65 73 -9 31 -28 75 -41
98 -23 39 -177 199 -235 243 -36 28 -53 73 -46 127 6 55 45 100 127 146 30 18
98 58 151 90 54 32 101 58 105 58 16 0 131 95 199 164 78 80 139 175 156 242
6 25 9 79 7 122 -5 79 -5 78 -83 207 -27 44 -55 134 -74 235 -13 67 -39 155
-72 250 -11 30 -21 60 -23 65 -7 27 -70 138 -116 203 -54 77 -158 185 -253
266 -32 26 -69 65 -82 85 -28 46 -45 147 -45 278 0 170 -20 464 -34 498 -17
39 -62 60 -110 51 -59 -11 -155 -84 -306 -233 -164 -161 -242 -224 -385 -310
-178 -107 -297 -192 -405 -287 -123 -108 -251 -241 -292 -302 -49 -76 -163
-336 -198 -454 -35 -116 -120 -359 -145 -415 -135 -299 -213 -404 -345 -472
-47 -24 -66 -28 -135 -27 -73 0 -91 5 -205 53 -69 28 -176 77 -238 107 -291
141 -509 215 -712 239 -25 3 -68 10 -96 15 -95 17 -296 23 -389 11 -49 -6
-115 -13 -145 -17 -109 -11 -285 -45 -288 -54 -2 -6 -13 -10 -25 -11 -12 0
-41 -10 -64 -22 -64 -34 -263 -169 -313 -214 -134 -119 -176 -153 -187 -148
-7 2 -12 1 -11 -3 2 -4 -34 -43 -78 -87 -107 -107 -278 -288 -394 -415 -246
-272 -284 -304 -348 -289 -87 19 -103 133 -53 379 70 341 125 539 161 578 11
12 20 24 20 27 0 4 20 38 45 76 25 38 45 72 45 75 0 3 13 24 28 47 16 23 48
78 71 122 24 44 49 87 56 95 7 8 34 62 60 120 26 58 61 134 77 170 16 36 33
74 37 85 5 11 13 31 19 45 6 14 18 46 29 72 10 27 22 48 26 48 5 0 5 4 2 10
-3 5 5 42 19 82 64 188 104 347 137 548 20 122 15 356 -10 490 -91 470 -435
868 -871 1005 -30 9 -64 23 -75 30 -41 25 -270 66 -286 51z"/>
<path d="M39931 20429 c-26 -25 -39 -26 -346 -33 -165 -4 -217 -9 -243 -21
-17 -9 -44 -18 -59 -21 -14 -3 -31 -8 -37 -11 -5 -4 -62 -7 -125 -8 -111 -2
-141 -8 -300 -55 -19 -5 -76 -10 -125 -11 -96 0 -262 -32 -396 -74 -41 -13
-92 -27 -112 -30 -21 -4 -38 -11 -38 -15 0 -4 -17 -10 -37 -13 -57 -9 -81 -15
-148 -37 -34 -11 -72 -22 -84 -25 -45 -8 -578 -192 -596 -205 -5 -4 -57 -27
-115 -50 -177 -70 -575 -279 -692 -361 -14 -11 -29 -19 -32 -19 -12 0 -350
-230 -366 -249 -3 -4 -32 -29 -65 -56 -99 -82 -529 -505 -590 -580 -31 -38
-65 -80 -76 -93 -10 -12 -19 -26 -19 -31 0 -5 -4 -11 -8 -13 -8 -3 -81 -113
-135 -203 -54 -90 -178 -337 -239 -475 -33 -74 -70 -155 -81 -180 -23 -52 -20
-42 -47 -140 -11 -41 -23 -104 -26 -140 -6 -71 -15 -113 -45 -205 -19 -59 -20
-101 -19 -2250 l0 -2190 -444 890 c-386 773 -633 1255 -824 1615 -28 52 -71
133 -95 180 -24 47 -85 162 -134 255 -50 94 -203 395 -341 671 -138 276 -277
541 -309 589 -32 48 -65 98 -73 111 l-15 24 -1010 -2 -1010 -3 -67 -32 c-36
-17 -68 -30 -70 -28 -11 11 -13 -591 -13 -3525 0 -2579 4 -3705 15 -3705 0 0
397 2 882 5 1055 6 967 -5 1021 133 l27 67 0 2092 c0 1284 4 2088 9 2083 9
-10 39 -67 296 -570 142 -277 135 -266 207 -390 73 -127 143 -257 170 -315 11
-25 24 -47 27 -50 3 -3 34 -61 68 -130 35 -69 122 -235 194 -370 72 -135 153
-288 181 -340 28 -52 70 -129 93 -170 23 -41 93 -174 155 -295 173 -337 201
-391 330 -619 40 -71 104 -191 143 -265 38 -75 105 -203 147 -286 43 -82 119
-222 168 -310 50 -88 127 -232 172 -320 46 -88 160 -306 253 -485 94 -179 187
-356 207 -395 132 -253 184 -351 189 -355 3 -3 23 -39 43 -80 21 -41 68 -131
104 -200 37 -69 90 -168 117 -220 27 -52 93 -176 147 -275 95 -177 158 -295
308 -585 187 -362 394 -746 410 -761 9 -10 42 -31 73 -48 l56 -31 244 3 c179
3 263 8 315 20 39 9 95 19 125 22 30 3 86 15 124 25 39 10 117 31 175 45 499
126 974 350 1405 664 72 52 153 116 180 142 28 26 77 69 110 96 161 133 449
445 568 615 67 97 180 264 208 310 59 96 181 331 224 434 26 60 53 123 60 139
33 71 79 206 140 405 17 56 33 117 39 150 2 14 13 61 25 105 33 135 62 277 57
283 -3 3 0 12 7 20 17 21 24 2517 6 2538 -20 24 -267 19 -376 -7 -48 -12 -97
-22 -108 -24 -11 -2 -50 -15 -88 -29 -37 -14 -71 -26 -75 -27 -33 -7 -154 -59
-227 -96 -102 -52 -127 -52 -222 -5 -96 49 -200 89 -353 137 -240 74 -242 74
-575 71 -322 -3 -289 1 -505 -61 -90 -25 -311 -110 -383 -147 -86 -44 -126
-44 -209 -2 -37 19 -102 48 -145 65 -43 17 -82 34 -88 37 -9 6 -50 18 -190 57
-27 7 -75 20 -105 29 -30 9 -79 16 -107 16 l-53 0 0 2441 0 2441 30 86 c16 48
32 103 35 122 3 19 13 62 21 95 9 33 17 71 19 85 2 14 4 25 5 25 1 0 3 8 5 17
11 58 52 168 91 242 24 48 44 93 44 101 0 41 123 314 198 440 40 67 144 227
153 235 3 3 29 40 58 82 29 43 63 88 75 100 12 13 44 52 71 88 67 87 189 224
250 281 54 50 203 161 300 225 33 21 62 42 65 45 5 6 86 61 219 147 55 36 278
153 304 160 4 1 31 12 60 25 28 13 90 39 137 57 47 18 90 37 95 40 8 6 168 62
185 65 3 1 32 9 65 19 33 10 71 20 85 22 14 3 59 16 100 29 94 31 258 74 263
69 4 -5 133 20 202 39 28 8 104 15 170 16 106 2 129 6 193 32 52 21 91 29 135
30 36 0 92 10 132 23 l70 22 -1 85 c0 46 -4 105 -8 130 -7 45 -8 47 -51 58
-26 7 -147 11 -303 11 -249 0 -259 -1 -281 -21z m-2101 -8954 c181 -30 353
-124 481 -262 92 -99 143 -186 191 -323 32 -91 53 -89 88 5 66 176 140 292
243 378 187 156 324 208 557 212 113 2 150 -2 227 -21 99 -25 232 -87 298
-137 128 -99 243 -249 290 -378 48 -132 67 -324 44 -440 -6 -30 -12 -65 -15
-79 -17 -91 -77 -219 -141 -303 -149 -193 -314 -293 -552 -332 -175 -30 -357
-4 -507 71 -51 26 -76 34 -88 27 -8 -5 -90 -80 -182 -168 -91 -88 -177 -166
-190 -173 -14 -7 -34 -10 -47 -6 -12 4 -99 83 -193 175 -186 184 -189 185
-259 148 -39 -21 -131 -56 -170 -65 -162 -36 -276 -40 -395 -13 -25 6 -56 13
-69 15 -13 3 -69 26 -125 53 -195 92 -318 219 -413 427 -47 100 -57 139 -72
264 -10 83 -7 131 18 272 29 165 170 390 310 492 106 78 286 152 401 165 71 8
212 6 270 -4z"/>
<path d="M39325 11211 c-22 -4 -57 -15 -77 -24 -21 -9 -38 -14 -38 -12 0 3
-23 -9 -50 -25 -28 -17 -55 -30 -61 -30 -20 0 -158 -147 -187 -200 -86 -155
-105 -296 -59 -446 50 -162 158 -289 313 -366 86 -42 86 -42 212 -45 179 -4
261 22 408 133 75 56 123 117 170 220 26 56 28 67 28 209 l1 150 -52 105 c-29
58 -69 124 -90 146 -54 59 -184 140 -262 164 -73 23 -194 33 -256 21z"/>
<path d="M37527 11188 c-87 -25 -201 -94 -259 -155 -48 -52 -121 -170 -142
-232 -21 -59 -28 -157 -18 -248 15 -127 81 -249 187 -344 27 -24 56 -50 65
-58 33 -32 157 -81 220 -88 194 -22 314 9 464 119 92 68 106 86 160 189 55
107 70 177 64 294 -5 76 -11 104 -45 180 -21 50 -48 101 -58 115 -46 59 -155
157 -200 182 -125 67 -303 86 -438 46z"/>
<path d="M13130 16969 c-83 -21 -183 -35 -355 -50 -109 -9 -146 -16 -168 -32
-20 -14 -61 -23 -140 -32 -94 -11 -172 -26 -257 -49 -22 -6 -230 -82 -265 -96
-16 -7 -43 -18 -60 -25 -175 -73 -331 -149 -450 -220 -42 -25 -78 -45 -80 -45
-12 0 -179 -121 -249 -180 -45 -37 -205 -193 -356 -347 l-275 -279 -89 -160
c-49 -87 -107 -188 -128 -224 -78 -129 -136 -263 -208 -480 -23 -69 -47 -133
-52 -143 -5 -10 -11 -26 -13 -36 -2 -10 -13 -49 -25 -87 -11 -38 -23 -87 -25
-109 -2 -22 -14 -85 -25 -140 -25 -118 -24 -116 -46 -270 -10 -79 -14 -157
-11 -227 5 -110 -4 -175 -39 -293 -29 -97 -25 -265 10 -390 25 -90 28 -118 31
-290 1 -104 8 -216 15 -249 6 -32 12 -68 12 -80 1 -11 12 -61 25 -109 14 -49
26 -99 28 -110 2 -12 13 -56 25 -97 48 -161 60 -206 64 -226 4 -18 64 -193
101 -294 26 -69 123 -266 175 -355 29 -49 61 -105 71 -123 28 -48 135 -207
151 -223 7 -8 42 -50 78 -94 35 -44 162 -176 281 -293 175 -172 233 -222 295
-258 43 -24 81 -44 85 -44 4 0 9 -4 11 -8 6 -16 218 -153 312 -203 51 -27 134
-63 182 -80 49 -16 96 -32 104 -35 8 -3 15 -4 15 -3 0 1 18 -7 40 -18 56 -28
173 -74 204 -80 14 -2 30 -8 36 -12 33 -26 275 -93 320 -89 12 1 57 -8 100
-19 143 -38 184 -43 358 -43 201 0 285 -11 377 -47 66 -26 300 -25 385 2 33
10 63 18 66 17 4 -1 22 3 40 9 19 6 124 15 234 20 219 10 235 11 253 23 6 4
12 5 12 2 0 -3 24 4 53 15 31 13 75 21 110 21 31 0 60 4 63 9 3 5 9 7 14 4 21
-13 254 54 388 111 18 8 70 28 115 44 45 17 101 40 123 51 23 11 48 22 55 23
44 9 303 144 411 214 108 70 213 150 269 204 31 30 104 91 161 136 117 90 163
137 204 208 35 62 65 100 176 227 89 101 258 363 258 400 0 9 4 17 9 17 12 0
112 204 142 290 12 36 25 70 29 75 4 6 15 35 24 65 10 30 23 69 30 85 11 26
34 95 91 280 26 81 57 273 65 395 5 92 14 142 31 190 l24 65 0 475 0 475 -26
70 c-20 56 -26 91 -28 175 -2 113 -4 132 -27 255 -21 110 -57 240 -120 435
-79 246 -153 420 -278 656 -37 70 -211 343 -225 354 -4 3 -36 43 -71 90 -91
122 -344 370 -480 471 -126 93 -315 218 -370 243 -19 9 -64 31 -100 50 -150
79 -415 192 -565 241 -103 33 -279 88 -290 91 -5 1 -46 12 -90 23 -44 12 -114
24 -155 27 -41 3 -131 14 -200 25 -69 11 -143 21 -165 24 -22 2 -60 8 -85 14
-55 13 -699 13 -750 0z m690 -1770 c47 -11 92 -22 100 -24 14 -3 136 -45 228
-79 107 -40 217 -111 310 -200 59 -56 192 -227 222 -286 7 -14 16 -27 20 -30
20 -15 153 -287 164 -335 1 -5 10 -37 20 -70 10 -33 20 -71 22 -85 3 -14 13
-63 24 -110 71 -305 75 -348 75 -770 0 -284 0 -285 -25 -335 -23 -45 -25 -62
-26 -175 0 -92 -4 -133 -16 -155 -25 -48 -76 -197 -83 -239 -12 -81 -125 -285
-224 -406 -21 -25 -61 -80 -90 -122 -58 -84 -90 -116 -172 -174 -30 -20 -67
-47 -84 -58 -16 -12 -35 -27 -43 -33 -7 -7 -43 -29 -79 -50 -68 -38 -148 -64
-373 -124 -19 -5 -156 -9 -305 -9 -258 -1 -274 0 -350 23 -168 51 -331 110
-350 126 -11 10 -53 39 -93 65 -108 73 -271 233 -339 334 -32 48 -61 89 -64
92 -3 3 -35 61 -72 130 -70 132 -122 255 -131 307 -12 68 -58 245 -72 278 -22
54 -21 952 1 1092 9 54 18 114 21 133 19 148 136 456 255 678 46 84 68 110
220 260 94 92 184 173 202 181 18 8 72 34 120 58 92 46 210 91 262 99 17 3 48
10 70 16 22 6 117 10 210 10 94 -1 188 2 210 6 57 11 137 4 235 -19z"/>
<path d="M17155 16970 c-49 -4 -110 -9 -135 -10 -121 -6 -247 -37 -227 -56 3
-3 -1 -29 -9 -57 -22 -85 -17 -133 26 -253 22 -60 40 -113 40 -117 0 -5 6 -23
14 -40 8 -18 31 -77 51 -132 19 -55 44 -122 55 -150 11 -27 35 -95 54 -150 19
-55 46 -129 59 -165 14 -36 41 -110 61 -164 41 -111 102 -270 116 -301 5 -11
23 -58 40 -105 17 -46 37 -98 45 -115 8 -16 28 -68 45 -115 17 -47 40 -107 50
-135 10 -27 24 -68 31 -90 6 -22 15 -44 19 -50 4 -5 15 -32 23 -60 9 -27 32
-95 52 -150 20 -55 38 -104 39 -110 2 -5 6 -17 9 -25 7 -16 54 -146 88 -240
11 -30 26 -69 34 -87 8 -17 15 -35 15 -39 0 -8 36 -107 136 -374 25 -69 61
-168 79 -220 46 -130 84 -231 95 -255 5 -11 37 -94 69 -185 33 -91 77 -208 97
-260 19 -52 53 -142 74 -200 21 -58 52 -143 70 -190 31 -84 93 -254 131 -360
11 -30 26 -69 34 -87 8 -17 15 -35 15 -40 0 -5 12 -38 26 -74 14 -35 27 -71
29 -79 2 -8 18 -53 35 -100 17 -47 42 -114 55 -150 12 -36 28 -78 35 -95 26
-63 62 -163 60 -167 -1 -2 7 -21 16 -43 26 -62 73 -189 149 -400 19 -55 40
-109 45 -120 11 -23 119 -312 125 -335 2 -8 20 -58 40 -110 62 -165 96 -255
99 -265 2 -5 8 -22 14 -38 7 -15 20 -53 31 -85 11 -31 36 -100 56 -152 20 -52
38 -99 39 -105 2 -5 7 -21 13 -35 6 -14 20 -52 32 -85 12 -33 26 -69 31 -80 5
-11 37 -94 70 -185 34 -91 65 -174 70 -185 17 -36 147 -402 165 -465 18 -60
61 -178 74 -204 33 -65 209 -540 291 -786 29 -87 83 -217 125 -300 26 -51 46
-76 84 -104 58 -41 66 -42 153 -19 35 9 71 16 80 15 29 -1 91 129 178 373 18
50 50 137 72 195 22 58 53 139 68 180 16 41 32 91 35 110 4 19 29 82 57 140
61 128 78 174 84 223 2 21 10 53 19 70 8 18 28 73 45 122 17 50 35 99 40 110
6 11 20 47 31 80 39 110 57 159 89 240 17 44 40 105 51 135 10 30 23 64 29 75
5 11 37 97 71 190 64 175 98 269 144 390 15 39 35 93 44 120 10 28 35 95 55
150 21 55 49 132 63 170 14 39 36 96 49 128 13 32 24 64 24 70 1 7 9 30 20 52
11 22 19 44 20 50 0 10 42 124 65 180 7 17 20 53 29 80 9 28 21 59 26 70 6 11
21 52 34 90 13 39 45 124 71 190 67 176 154 409 161 435 7 27 55 165 64 185
10 22 48 127 129 355 29 80 56 154 61 165 11 23 46 117 95 255 19 52 50 138
70 190 19 52 43 114 51 138 8 24 24 63 34 87 11 25 17 45 15 45 -2 0 7 25 21
55 13 31 24 60 24 65 0 6 9 29 19 53 11 23 34 80 52 127 17 47 37 99 44 115
65 152 86 207 82 212 -10 10 43 162 108 308 7 17 30 73 50 125 20 52 42 109
50 125 7 17 18 48 25 70 7 22 18 54 26 70 12 27 58 158 69 195 2 8 18 53 35
100 17 47 42 114 55 150 50 138 84 228 119 317 20 51 36 96 36 100 0 5 9 25
20 46 11 20 21 40 21 44 2 10 11 36 54 143 18 47 47 123 64 170 16 47 44 123
61 170 49 132 76 206 119 327 22 62 44 121 50 130 5 10 43 119 84 243 151 454
146 429 82 467 -120 70 -8 63 -1053 63 l-939 0 -12 -39 c-6 -22 -19 -56 -28
-78 -9 -21 -18 -42 -19 -48 -2 -5 -19 -50 -38 -100 -174 -447 -176 -452 -361
-1000 -92 -272 -219 -640 -266 -775 -17 -47 -39 -110 -49 -140 -10 -30 -42
-118 -70 -195 -29 -77 -58 -160 -66 -185 -8 -25 -18 -54 -24 -65 -11 -24 -48
-132 -260 -765 -87 -261 -180 -533 -205 -605 -26 -71 -69 -195 -97 -275 -28
-80 -75 -215 -105 -300 -30 -85 -61 -177 -69 -205 -25 -82 -26 -83 -34 -55 -5
14 -20 57 -35 95 -50 132 -96 260 -135 375 -102 300 -152 446 -154 455 -1 6
-4 15 -7 20 -6 9 -38 103 -46 130 -1 6 -19 55 -39 110 -19 55 -44 125 -54 155
-29 85 -105 297 -135 374 -23 61 -280 828 -290 866 -3 8 -34 101 -70 205 -36
105 -72 208 -79 230 -8 22 -37 105 -66 185 -64 178 -211 601 -214 615 -1 6
-21 69 -44 140 -24 72 -52 157 -62 190 -19 58 -70 230 -74 250 -1 6 -9 24 -18
40 -9 17 -29 68 -46 115 -16 47 -36 99 -43 115 -22 49 -77 121 -114 149 l-34
26 -728 4 c-400 3 -768 1 -818 -4z"/>
<path d="M24742 16957 c-36 -8 -53 -22 -107 -87 l-65 -78 0 -3470 0 -3470 22
-57 c19 -50 31 -65 93 -111 l72 -54 2339 2 2339 3 32 23 c52 37 71 79 83 183
6 52 11 128 12 169 2 98 2 1071 0 1175 -1 81 -17 279 -28 348 l-6 37 -1445 0
-1446 0 7 77 c3 42 6 276 6 519 l0 444 1328 2 c1039 3 1335 6 1364 16 27 9 49
30 84 80 27 37 52 68 56 70 4 2 8 298 8 658 l0 655 -42 45 c-23 24 -53 60 -67
79 l-24 35 -1356 0 -1356 0 3 357 c3 332 4 361 23 403 11 25 23 64 26 87 l6
43 1349 0 1349 0 80 79 80 79 -3 781 -3 780 -55 56 -54 55 -2331 -1 c-1560 -1
-2344 -5 -2373 -12z"/>
<path d="M33412 9838 c-6 -6 -12 -19 -12 -28 0 -9 -18 -32 -40 -53 -28 -25
-40 -45 -40 -64 0 -43 -98 -179 -201 -279 -128 -123 -363 -280 -535 -357 -113
-50 -333 -139 -444 -180 -197 -72 -575 -160 -1133 -261 -142 -26 -572 -79
-637 -78 -8 0 -31 -4 -50 -8 -52 -13 -210 -29 -450 -45 -118 -8 -269 -19 -335
-25 -81 -7 -1435 -13 -4130 -18 l-4010 -7 -8 -40 c-15 -78 -49 -171 -98 -271
-27 -55 -49 -108 -49 -117 0 -10 -14 -56 -31 -105 -17 -48 -33 -95 -36 -104
-5 -17 103 -18 2165 -18 2058 0 2170 1 2174 18 5 16 44 17 724 10 1214 -13
3013 -12 3154 1 69 6 210 16 313 21 149 8 474 42 622 65 11 2 92 13 180 24 88
12 170 23 182 26 11 3 99 18 195 35 95 16 182 31 193 34 11 3 65 14 120 26 89
18 364 94 665 182 217 64 441 154 701 283 205 101 297 155 420 248 118 89 151
117 312 272 127 123 157 166 166 236 1 3 17 23 36 43 21 22 35 48 35 62 0 36
23 75 59 102 31 22 31 24 25 85 -7 76 5 111 46 132 31 16 31 16 28 88 l-3 72
-130 3 c-93 2 -134 -1 -143 -10z"/>
<path d="M8510 8460 c-2029 -4 -3008 -10 -3148 -18 -159 -9 -645 -62 -792 -86
-14 -3 -43 -7 -65 -10 -436 -57 -665 -103 -1060 -213 -457 -127 -563 -163
-829 -280 -375 -166 -568 -285 -812 -498 -7 -5 -66 -64 -133 -129 -107 -106
-123 -126 -146 -185 -14 -36 -38 -79 -55 -94 -22 -21 -30 -38 -30 -64 0 -28
-8 -43 -44 -77 l-44 -43 6 -71 5 -72 -37 -34 c-37 -33 -37 -34 -34 -102 l3
-69 126 -3 c135 -3 159 5 159 48 0 9 16 30 35 44 25 19 35 35 35 54 0 50 77
160 191 272 115 113 119 117 272 217 182 118 314 182 642 309 222 85 564 170
1085 268 159 30 444 69 870 117 220 25 197 23 480 44 124 9 398 20 610 25 212
5 2470 9 5018 9 4626 1 4634 1 4639 -19 5 -20 14 -20 2135 -20 l2130 0 -5 23
c-3 12 -19 60 -37 107 -17 47 -40 108 -50 135 -10 28 -42 109 -70 180 -29 72
-55 141 -58 154 -2 13 -12 33 -21 43 -14 17 -31 19 -171 17 -85 0 -160 -5
-166 -10 -11 -9 -3027 -5 -3529 5 -296 6 -2516 25 -3445 29 -393 2 -2040 1
-3660 -3z"/>
</g>
</svg>
