<?xml version="1.0" standalone="no"?>
<!DOCTYPE svg PUBLIC "-//W3C//DTD SVG 20010904//EN"
 "http://www.w3.org/TR/2001/REC-SVG-20010904/DTD/svg10.dtd">
<svg version="1.0" xmlns="http://www.w3.org/2000/svg"
 width="200px" height="200px" viewBox="0 0 880.000000 802.000000"
 preserveAspectRatio="xMidYMid meet">
<g transform="translate(0.000000,802.000000) scale(0.100000,-0.100000)"
fill="#a2717d" stroke="none">
<path d="M2290 7423 c-62 -109 -202 -351 -310 -538 -108 -187 -349 -603 -535
-925 -186 -322 -402 -695 -480 -830 -78 -135 -204 -353 -280 -485 -76 -132
-169 -293 -207 -357 -37 -64 -68 -121 -68 -127 0 -5 80 -148 178 -318 175
-301 347 -599 1037 -1793 186 -322 436 -754 555 -960 l217 -375 119 -5 c65 -3
965 -6 1999 -5 l1879 0 79 135 c44 74 146 250 226 390 81 140 309 534 506 875
197 341 379 656 405 700 25 44 209 362 408 706 199 344 364 632 367 640 3 8
-80 163 -188 349 -207 358 -325 562 -902 1560 -202 349 -487 843 -633 1097
l-267 463 -1995 0 -1995 0 -115 -197z"/>
</g>
</svg>
